<svg width="240" height="240" viewBox="0 0 240 240" fill="none" xmlns="http://www.w3.org/2000/svg">
  <rect width="240" height="240" rx="22" fill="#ffffff"/>
  <rect x="28" y="28" width="58" height="58" rx="6" fill="#111827"/>
  <rect x="154" y="28" width="58" height="58" rx="6" fill="#111827"/>
  <rect x="28" y="154" width="58" height="58" rx="6" fill="#111827"/>
  <rect x="44" y="44" width="26" height="26" rx="3" fill="#ffffff"/>
  <rect x="170" y="44" width="26" height="26" rx="3" fill="#ffffff"/>
  <rect x="44" y="170" width="26" height="26" rx="3" fill="#ffffff"/>
  <rect x="104" y="104" width="18" height="18" fill="#111827"/>
  <rect x="132" y="104" width="18" height="18" fill="#111827"/>
  <rect x="104" y="132" width="18" height="18" fill="#111827"/>
  <rect x="156" y="132" width="18" height="18" fill="#111827"/>
  <rect x="132" y="156" width="18" height="18" fill="#111827"/>
  <rect x="184" y="156" width="18" height="18" fill="#111827"/>
  <rect x="104" y="184" width="18" height="18" fill="#111827"/>
  <rect x="156" y="184" width="46" height="18" fill="#111827"/>
  <text x="120" y="224" text-anchor="middle" fill="#6b7280" font-family="Arial" font-size="13">QR Placeholder</text>
</svg>
